# xmcd CD database file
#
# Track frame offsets:
#	150
#	23780
#	47510
#	57010
#	80665
#	113942
#	131740
#	166982
#	193292
#	215825
#
# Disc length: 4291 seconds
#
# Revision: 0
# Processed by: cddbd v1.5PL3 Copyright (c) Steve Scherf et al.
# Submitted via: CDex 1.50
#
DISCID=8f10c10a
DTITLE=Roberto Aymes - Antologia II
DYEAR=1999
DGENRE=Jazz
TTITLE0=Cesar
TTITLE1=Django
TTITLE2=West Coast Blues
TTITLE3=Sin tiempo
TTITLE4=Stolen
TTITLE5=So in love
TTITLE6=Danubio's Delta
TTITLE7=Booze Blues
TTITLE8=Days of wine and roses
TTITLE9=Freedom Jazz Dance
EXTD=YEAR: 1999
EXTT0=
EXTT1=
EXTT2=
EXTT3=
EXTT4=
EXTT5=
EXTT6=
EXTT7=
EXTT8=
EXTT9=
PLAYORDER=
